<svg id="Address_icon" xmlns="http://www.w3.org/2000/svg" xmlns:xlink="http://www.w3.org/1999/xlink" width="24" height="30" viewBox="0 0 24 30">
  <defs>
    <clipPath id="clip-path">
      <rect id="사각형_147" data-name="사각형 147" width="24" height="30" fill="#fff"/>
    </clipPath>
  </defs>
  <g id="그룹_359" data-name="그룹 359" clip-path="url(#clip-path)">
    <path id="패스_659" data-name="패스 659" d="M23.995,4.15a.488.488,0,0,0,0-.059c0-.016-.01-.031-.014-.046s-.01-.035-.016-.053a.558.558,0,0,0-.049-.1c-.008-.013-.014-.026-.023-.039a.575.575,0,0,0-.109-.114l-.017-.01a.592.592,0,0,0-.1-.063L16.069.061a.63.63,0,0,0-.7.108L12.992,2.425,8.474.281a.631.631,0,0,0-.7.108L.178,7.6l0,.005c-.014.014-.024.03-.037.044a.6.6,0,0,0-.053.068c-.01.017-.017.035-.026.053a.568.568,0,0,0-.032.076c-.006.019-.008.038-.012.058A.572.572,0,0,0,0,7.987C0,7.994,0,8,0,8.008v14.2a.575.575,0,0,0,.336.516l7.6,3.606,7.595,3.606c.008,0,.016.005.024.008l.015.009a.631.631,0,0,0,.062.018c.014,0,.028.009.042.012A.642.642,0,0,0,15.8,30h0a.634.634,0,0,0,.146-.019l.039-.011a.609.609,0,0,0,.115-.048c.006,0,.013,0,.019-.008l.006,0a.593.593,0,0,0,.1-.078l7.595-7.212A.562.562,0,0,0,24,22.212V4.183c0-.011,0-.022-.005-.033m-8.077-2.87,6.449,3.062-6.689,6.351L12.272,9.076,9.228,7.631Zm-7.6.219,3.764,1.787-4.313,4.1-.005.006c-.008.007-.014.016-.02.024a.564.564,0,0,0-.057.07L7.679,7.5c-.006.01-.011.022-.016.032a.559.559,0,0,0-.029.062c0,.012-.008.023-.012.035s-.006.019-.008.028a.522.522,0,0,0-.01.061c0,.015,0,.031,0,.046s0,.017,0,.025V10.68L1.633,7.85ZM1.215,8.942l6.38,3.029V24.884l-6.38-3.029Zm7.6,2.672V8.722l6.38,3.029V28.49L8.81,25.461ZM22.785,21.973,16.4,28.03v-16.4l6.38-6.058Z" transform="translate(0 0)" fill="#fff"/>
  </g>
</svg>
