<svg id="birth_icon" xmlns="http://www.w3.org/2000/svg" xmlns:xlink="http://www.w3.org/1999/xlink" width="30" height="30" viewBox="0 0 30 30">
  <defs>
    <clipPath id="clip-path">
      <rect id="사각형_145" data-name="사각형 145" width="30" height="30" fill="#fff"/>
    </clipPath>
  </defs>
  <g id="그룹_357" data-name="그룹 357" clip-path="url(#clip-path)">
    <path id="패스_657" data-name="패스 657" d="M30,12.78c0-2.273-2.686-4.273-7.212-5.394v-1.9c0-.509-.427-.911-1.111-1.107a2.8,2.8,0,0,0,.606-1.833A3.871,3.871,0,0,0,21.05.157a.571.571,0,0,0-.787,0,3.872,3.872,0,0,0-1.233,2.388,2.8,2.8,0,0,0,.606,1.833c-.683.2-1.11.6-1.11,1.107V6.678q-.685-.067-1.394-.108V5.486c0-.509-.427-.91-1.111-1.107a2.8,2.8,0,0,0,.606-1.833A3.872,3.872,0,0,0,15.393.157a.571.571,0,0,0-.787,0,3.871,3.871,0,0,0-1.234,2.388,2.8,2.8,0,0,0,.606,1.833c-.683.2-1.111.6-1.111,1.107V6.57q-.709.041-1.393.108V5.485c0-.509-.427-.911-1.111-1.107a2.8,2.8,0,0,0,.606-1.833A3.872,3.872,0,0,0,9.737.157a.572.572,0,0,0-.788,0A3.872,3.872,0,0,0,7.716,2.545a2.8,2.8,0,0,0,.606,1.833c-.683.2-1.11.6-1.11,1.107v1.9C2.686,8.5,0,10.5,0,12.78V23.723C0,27.243,6.589,30,15,30s15-2.757,15-6.277V12.78ZM20.657,5.412a2.7,2.7,0,0,1,.647.073l-.076.017-.053.011c-.032.006-.068.011-.1.016l-.05.008c-.038,0-.079.008-.12.011l-.053,0c-.061,0-.125.006-.191.006s-.131,0-.192-.006l-.054,0c-.041,0-.082-.006-.119-.011l-.051-.008-.1-.016L20.085,5.5l-.076-.016a2.7,2.7,0,0,1,.647-.073m-.978,1.908V6.606l.023,0a3.36,3.36,0,0,0,.416.08l.039.005a4.181,4.181,0,0,0,1,0L21.2,6.69a3.349,3.349,0,0,0,.416-.08l.023,0v6.051a2.528,2.528,0,0,1-1.956,0Zm.977-5.856a2.055,2.055,0,0,1,.473,1.081c0,.73-.329,1.173-.473,1.173s-.473-.443-.473-1.173a2.056,2.056,0,0,1,.473-1.081M15.647,5.486l-.076.017-.053.011c-.032.006-.068.011-.1.016l-.05.008c-.038,0-.079.007-.12.011l-.053,0c-.061,0-.125.006-.191.006s-.131,0-.192-.006l-.054,0c-.041,0-.082-.006-.119-.011l-.051-.008c-.035-.005-.071-.01-.1-.016L14.428,5.5l-.076-.017a2.91,2.91,0,0,1,1.294,0M14.46,6.691,14.5,6.7a4.181,4.181,0,0,0,1,0l.039-.005a3.349,3.349,0,0,0,.416-.08l.023,0v6.051a2.061,2.061,0,0,1-.978.2,2.063,2.063,0,0,1-.978-.2V6.606l.023,0a3.344,3.344,0,0,0,.415.08M15,1.465a2.054,2.054,0,0,1,.473,1.081c0,.73-.328,1.173-.473,1.173s-.473-.443-.473-1.173A2.054,2.054,0,0,1,15,1.465M9.343,5.412a2.7,2.7,0,0,1,.647.073L9.914,5.5l-.053.011c-.032.006-.068.011-.1.016l-.05.008c-.038,0-.079.008-.12.011l-.053,0c-.061,0-.125.006-.192.006s-.131,0-.191-.006l-.055,0c-.04,0-.081-.006-.118-.011l-.055-.008c-.034,0-.068-.009-.1-.015L8.767,5.5,8.7,5.485a2.7,2.7,0,0,1,.647-.073M8.366,7.849V6.606l.023,0a3.291,3.291,0,0,0,.415.08l.04.006a4.21,4.21,0,0,0,.5.03,4.157,4.157,0,0,0,.5-.03l.039-.005a3.36,3.36,0,0,0,.416-.08l.023,0v6.051a2.064,2.064,0,0,1-.978.2,2.064,2.064,0,0,1-.978-.2Zm.977-6.384a2.054,2.054,0,0,1,.473,1.081c0,.73-.329,1.173-.473,1.173S8.87,3.275,8.87,2.545a2.056,2.056,0,0,1,.473-1.081M7.212,8.59v4.19c0,.73.877,1.24,2.131,1.24s2.132-.51,2.132-1.24V7.845c.455-.046.921-.083,1.393-.111v5.047c0,.73.877,1.24,2.132,1.24a2.723,2.723,0,0,0,1.788-.527.944.944,0,0,0,.344-.713V7.734c.472.028.938.065,1.393.111V12.78c0,.73.877,1.24,2.132,1.24s2.131-.51,2.131-1.24V8.59c3.7.966,6.053,2.576,6.057,4.185h0L28.8,19.461a2.456,2.456,0,0,1-2.392-2.368.575.575,0,0,0-.911-.415.585.585,0,0,0-.24.474c0,1.142-.145,4.381-1.714,5.556a2.158,2.158,0,0,1-1.329.432c-2.243,0-2.877-2.006-3.014-3.689a.58.58,0,0,0-.575-.536h-.007a.574.574,0,0,0-.392.162.584.584,0,0,0-.178.388,3.882,3.882,0,0,1-1.6,3.337A2.961,2.961,0,0,1,15,23.139c-2.386,0-2.977-2.077-3.053-3.819a.58.58,0,0,0-.566-.558h-.01l-.016,0a.569.569,0,0,0-.56.535,5.057,5.057,0,0,1-1.111,3.087,2.524,2.524,0,0,1-1.9.753,2.1,2.1,0,0,1-1.577-.662C5.088,21.323,4.722,18.79,4.754,16.8a.58.58,0,0,0-.562-.593.57.57,0,0,0-.581.479.583.583,0,0,0-.011.083,2.922,2.922,0,0,1-.89,2.272l-.01.007a1.865,1.865,0,0,1-.169.12c-.02.013-.041.024-.062.036-.042.025-.084.048-.126.069l-.07.033c-.042.019-.083.036-.125.052l-.067.025c-.047.016-.094.03-.14.043l-.05.014c-.064.016-.127.03-.188.041l-.021,0c-.055.01-.109.017-.162.023l-.052.005-.123.01-.05,0-.117,0H1.154V12.78c0-1.613,2.354-3.226,6.058-4.19M28.846,23.723c0,2.467-5.564,5.109-13.846,5.109S1.154,26.191,1.154,23.723V20.7l.056,0,.134,0,.1-.005.151-.013.094-.01c.065-.008.132-.019.2-.031l.06-.01q.132-.025.268-.062c.025-.006.049-.015.074-.022.068-.02.135-.041.2-.065.032-.011.064-.024.1-.037q.093-.036.185-.079l.1-.048c.064-.032.128-.068.191-.106.029-.017.058-.033.087-.052a3,3,0,0,0,.656-.561,7.054,7.054,0,0,0,1.581,3.7,3.233,3.233,0,0,0,2.4,1.01,3.652,3.652,0,0,0,3.319-1.912c.082-.141.16-.288.231-.444A3.76,3.76,0,0,0,15,24.307a3.875,3.875,0,0,0,2.643-.923,4.063,4.063,0,0,0,1-1.385,3.731,3.731,0,0,0,3.569,2.307,3.284,3.284,0,0,0,1.783-.5c1.146-.722,1.924-2.2,2.247-4.3a3.229,3.229,0,0,0,.235.225c.019.016.04.031.059.047.066.055.134.108.206.159.03.021.062.041.094.061.066.043.135.086.207.126.038.021.077.041.117.061.072.037.146.071.224.1.043.019.088.037.133.054.081.031.165.059.251.085.048.015.095.03.144.044.094.025.193.047.294.067.047.01.093.021.142.029.125.022.257.038.392.051.03,0,.057.008.087.011l.02,0Z" transform="translate(0 0)" fill="#fff"/>
  </g>
</svg>
