<svg id="Career_icon" xmlns="http://www.w3.org/2000/svg" xmlns:xlink="http://www.w3.org/1999/xlink" width="30" height="24" viewBox="0 0 30 24">
  <defs>
    <clipPath id="clip-path">
      <rect id="사각형_146" data-name="사각형 146" width="30" height="24" fill="#fff"/>
    </clipPath>
  </defs>
  <g id="그룹_358" data-name="그룹 358" clip-path="url(#clip-path)">
    <path id="패스_658" data-name="패스 658" d="M28.018,3.669H22.742A4.126,4.126,0,0,0,18.75,0h-7.5A4.126,4.126,0,0,0,7.258,3.669H1.982A2.046,2.046,0,0,0,0,5.77V21.9A2.046,2.046,0,0,0,1.982,24H28.018A2.046,2.046,0,0,0,30,21.9V5.77a2.046,2.046,0,0,0-1.982-2.1M11.25,1.223h7.5a2.937,2.937,0,0,1,2.827,2.446H8.423A2.937,2.937,0,0,1,11.25,1.223M1.982,4.892H28.018a.855.855,0,0,1,.828.878v7.454H1.154V5.77a.855.855,0,0,1,.828-.878m9.989,9.554h6.058v2.429a.166.166,0,0,1-.16.17H12.132a.166.166,0,0,1-.161-.17Zm16.047,8.331H1.982a.855.855,0,0,1-.828-.878V14.446h9.663v2.429a1.357,1.357,0,0,0,1.314,1.393h5.737a1.357,1.357,0,0,0,1.314-1.393V14.446h9.663V21.9a.855.855,0,0,1-.828.878" transform="translate(0)" fill="#fff"/>
  </g>
</svg>
