<svg id="Collage_icon" xmlns="http://www.w3.org/2000/svg" xmlns:xlink="http://www.w3.org/1999/xlink" width="30" height="22.8" viewBox="0 0 30 22.8">
  <defs>
    <clipPath id="clip-path">
      <rect id="사각형_149" data-name="사각형 149" width="30" height="22.8" fill="#fff"/>
    </clipPath>
  </defs>
  <g id="그룹_361" data-name="그룹 361" clip-path="url(#clip-path)">
    <path id="패스_661" data-name="패스 661" d="M29.681,7.276,15.258.061a.576.576,0,0,0-.516,0L.319,7.276a.578.578,0,0,0,0,1.033L3.606,9.953v8.662C3.606,21.333,9.476,22.8,15,22.8c4.412,0,9.042-.937,10.728-2.7a.572.572,0,0,0,.565.673h2.732a.577.577,0,0,0,.558-.724l-1.347-5.118v-5.9l1.445-.723a.578.578,0,0,0,0-1.033M15,1.222l13.133,6.57-.591.3-12.5-.872a.577.577,0,0,0-.08,1.152L25.512,9.1,15,14.362,4.441,9.08h0L1.867,7.792Zm0,20.423c-6.345,0-10.241-1.765-10.241-3.031V10.53l9.983,4.993a.577.577,0,0,0,.516,0L25.24,10.53v8.085c0,1.265-3.9,3.031-10.24,3.031M27.042,19.62l.618-2.346.618,2.346Zm.041-4.687-.688,2.615V9.953l.688-.344Z" transform="translate(0 0)" fill="#fff"/>
  </g>
</svg>
