<svg xmlns="http://www.w3.org/2000/svg" xmlns:xlink="http://www.w3.org/1999/xlink" width="50" height="50" viewBox="0 0 50 50">
  <defs>
    <clipPath id="clip-path">
      <rect id="사각형_16" data-name="사각형 16" width="50" height="50" fill="#fb44fb"/>
    </clipPath>
  </defs>
  <g id="C__logo" data-name="C#_logo" clip-path="url(#clip-path)">
    <g id="csharp_logo" transform="translate(3.571 -0.117)">
      <path id="패스_70" data-name="패스 70" d="M78.026,57.143a4.045,4.045,0,0,0,.545-1.9V34.038a4.042,4.042,0,0,0-.545-1.9l-20.883,12.5Z" transform="translate(-35.714 -19.643)" fill="#7f3a86"/>
      <path id="패스_71" data-name="패스 71" d="M38.116,81.685l17.717-10.6a3.88,3.88,0,0,0,1.311-1.437l-20.883-12.5-20.883,12.5a3.88,3.88,0,0,0,1.311,1.437L34.4,81.685A3.986,3.986,0,0,0,38.116,81.685Z" transform="translate(-14.832 -32.143)" fill="#662579"/>
      <path id="패스_72" data-name="패스 72" d="M56.6,19.643a3.881,3.881,0,0,0-1.311-1.437L37.57,7.6a3.987,3.987,0,0,0-3.711,0l-17.717,10.6a4.3,4.3,0,0,0-1.856,3.332v21.21a4.043,4.043,0,0,0,.545,1.9l20.883-12.5Z" transform="translate(-14.286 -7.143)" fill="#9a5196"/>
      <path id="패스_73" data-name="패스 73" d="M42.926,57.143A14.286,14.286,0,1,1,55.213,35.468l-6.147,3.687a7.143,7.143,0,1,0-.01,7.423l6.16,3.666A14.422,14.422,0,0,1,42.926,57.143Z" transform="translate(-21.429 -17.857)" fill="#fff"/>
      <path id="패스_74" data-name="패스 74" d="M82.143,46.429V48.21H78.571V46.429H76.786V48.21H75V50h1.786v3.562H75v1.795h1.786v1.786h1.785V55.357h3.572v1.786h1.785V55.357h1.786V53.572H83.929V50h1.786V48.21H83.929V46.429Zm0,7.143V50H78.571v3.562Z" transform="translate(-44.643 -26.786)" fill="#fff" fill-rule="evenodd"/>
    </g>
  </g>
</svg>
