<svg xmlns="http://www.w3.org/2000/svg" xmlns:xlink="http://www.w3.org/1999/xlink" width="50" height="50" viewBox="0 0 50 50">
  <defs>
    <clipPath id="clip-path">
      <rect id="사각형_17" data-name="사각형 17" width="50" height="50" transform="translate(0 -0.383)" fill="#fb44fb"/>
    </clipPath>
  </defs>
  <g id="CSS3_logo" transform="translate(0 0.383)" clip-path="url(#clip-path)">
    <g id="CSS3_logo-2" data-name="CSS3_logo" transform="translate(7.17 -0.334)">
      <g id="_000000ff" data-name="#000000ff" transform="translate(7.134)">
        <path id="패스_80" data-name="패스 80" d="M14.268.186C16.459.158,18.651.177,20.842.176c.005.686.016,1.371-.009,2.057-1.518-.01-3.035,0-4.553.009-.01,1-.03,1.991-.021,2.986,1.523.009,3.048.024,4.571.018.018.563.011,1.129-.005,1.694-2.185-.015-4.37-.008-6.555-.006C14.275,4.684,14.28,2.435,14.268.186Z" transform="translate(-14.268 -0.171)" fill="#fff"/>
        <path id="패스_81" data-name="패스 81" d="M28.968.178c2.218,0,4.437-.018,6.656.007-.008.648,0,1.295,0,1.943q-2.421-.008-4.844.021,0,.382,0,.764c1.612.026,3.223.029,4.834.039.006,1.328,0,2.656.011,3.983q-3.329-.006-6.658.008c-.011-.536-.013-1.072,0-1.608,1.538,0,3.077.006,4.615-.006.009-.345.014-.692.013-1.037-1.545,0-3.092.005-4.637-.005C28.96,2.917,28.96,1.547,28.968.178Z" transform="translate(-21.613 -0.171)" fill="#fff"/>
        <path id="패스_82" data-name="패스 82" d="M43.75.209h6.644c.009.651.019,1.3,0,1.952-1.622,0-3.243.008-4.865.011,0,.266.01.532.024.8,1.612-.007,3.224.013,4.835.029.015,1.322.025,2.644.006,3.966q-3.329-.009-6.658,0c-.014-.534-.018-1.071.005-1.6q2.3.017,4.607-.005c0-.346.011-.693.008-1.038-1.541.015-3.083.006-4.626,0C43.729,2.952,43.74,1.58,43.75.209Z" transform="translate(-28.996 -0.19)" fill="#fff"/>
      </g>
      <g id="_0170baff" data-name="#0170baff" transform="translate(0 9.561)">
        <path id="패스_83" data-name="패스 83" d="M0,19.294q17.83,0,35.66,0c-.654,7.393-1.3,14.786-1.979,22.176q-.607,7.086-1.263,14.168c-2.537.672-5.048,1.438-7.584,2.113-2.329.683-4.677,1.3-7.007,1.98h-.069c-2.217-.659-4.457-1.24-6.674-1.9-2.617-.705-5.211-1.492-7.829-2.194C2.914,52.1,2.607,48.56,2.3,45.019,1.73,38.478,1.107,31.941.556,25.4.365,23.429.229,21.454,0,19.489v-.2m17.886,2.916c-.025,1.42.019,2.841-.025,4.26-4.078-.015-8.157,0-12.234,0,.07,1.378.255,2.747.445,4.114,3.794.141,7.593-.005,11.387.109-3.319,1.489-6.679,2.891-10.013,4.349a4.5,4.5,0,0,0-.847.409c.028,1.514.272,3.02.38,4.531,2.022-.007,4.043-.04,6.066-.043,1.62-.008,3.242.024,4.862-.011-.077,2.49.024,4.982-.052,7.472-1.09-.162-2.167-.4-3.253-.6-.857-.187-1.734-.284-2.578-.529-.12-1.195-.2-2.394-.31-3.589a2.7,2.7,0,0,0-.755-.072c-1.225.007-2.451,0-3.677.015A68.338,68.338,0,0,0,7.957,49.5c1.208.315,2.419.624,3.625.953,1.848.5,3.719.921,5.57,1.416a2.339,2.339,0,0,0,.671.11c.123,1.512.028,3.033.051,4.549a9.279,9.279,0,0,0,1.258-.3c3.5-.952,7-1.921,10.505-2.882.174-1.377.256-2.764.393-4.145q.546-6.3,1.113-12.589c.448-4.8.835-9.6,1.286-14.4C27.581,22.209,22.734,22.195,17.886,22.211Z" transform="translate(0 -19.293)" fill="#0170ba"/>
      </g>
      <g id="_29a9dfff" data-name="#29a9dfff" transform="translate(17.823 12.471)">
        <path id="패스_84" data-name="패스 84" d="M35.709,25.121c4.848-.016,9.7,0,14.545-.006-.451,4.8-.838,9.6-1.286,14.4q-.573,6.294-1.113,12.589c-.138,1.38-.219,2.767-.393,4.145-3.5.961-7,1.93-10.505,2.882a9.278,9.278,0,0,1-1.258.3c-.023-1.516.072-3.037-.051-4.549l.126-.025c3.259-.818,6.5-1.719,9.747-2.566.411-4.612.867-9.222,1.156-13.843-2.765.015-5.531.006-8.3.018-.4,0-.806,0-1.206-.029,1.488-.766,3.053-1.373,4.581-2.057,1.466-.665,2.95-1.288,4.421-1.94a4.1,4.1,0,0,0,.836-.433,6.886,6.886,0,0,0,.131-1.105c.085-1.169.235-2.331.291-3.5-3.916-.031-7.832,0-11.749-.025C35.728,27.962,35.684,26.541,35.709,25.121Z" transform="translate(-35.646 -25.113)" fill="#29a9df"/>
        <path id="패스_85" data-name="패스 85" d="M35.759,60.555c1.891-.032,3.782.019,5.674.006-.105,1.934-.266,3.864-.366,5.8-1.159.379-2.336.7-3.5,1.05a13.624,13.624,0,0,0-1.855.619C35.783,65.537,35.682,63.045,35.759,60.555Z" transform="translate(-35.676 -42.828)" fill="#29a9df"/>
      </g>
      <g id="_cfcfcfff" data-name="#cfcfcfff" transform="translate(5.626 16.732)">
        <path id="패스_86" data-name="패스 86" d="M11.253,33.643c4.078,0,8.157-.016,12.234,0,.053,4.487-.014,8.974.045,13.458-1.62.035-3.242,0-4.862.011-2.022,0-4.043.035-6.066.043-.107-1.511-.352-3.017-.38-4.531a4.5,4.5,0,0,1,.847-.409c3.334-1.458,6.694-2.86,10.013-4.349-3.794-.114-7.593.032-11.387-.109C11.507,36.39,11.322,35.021,11.253,33.643Z" transform="translate(-11.253 -33.635)" fill="#cfcfcf"/>
        <path id="패스_87" data-name="패스 87" d="M14.558,65.948c1.226-.019,2.452-.007,3.677-.015a2.7,2.7,0,0,1,.755.072c.106,1.2.19,2.395.31,3.589.844.245,1.722.342,2.578.529,1.086.193,2.163.436,3.253.6.1,1.515-.078,3.041.1,4.55L25.1,75.3a2.338,2.338,0,0,1-.671-.11c-1.851-.495-3.722-.913-5.57-1.416-1.206-.329-2.417-.638-3.625-.953A68.339,68.339,0,0,1,14.558,65.948Z" transform="translate(-12.905 -49.784)" fill="#cfcfcf"/>
      </g>
      <g id="_ffffffff" data-name="#ffffffff" transform="translate(17.853 16.739)">
        <path id="패스_88" data-name="패스 88" d="M35.714,33.649c3.917.021,7.833-.006,11.749.025-.056,1.17-.207,2.332-.291,3.5a6.886,6.886,0,0,1-.131,1.105,4.1,4.1,0,0,1-.836.433c-1.471.652-2.955,1.275-4.421,1.94-1.528.683-3.093,1.291-4.581,2.057.4.029.8.031,1.206.029,2.765-.011,5.531,0,8.3-.018-.289,4.621-.745,9.231-1.156,13.843-3.251.847-6.488,1.748-9.747,2.566-.174-1.51.008-3.035-.1-4.55a13.624,13.624,0,0,1,1.855-.619c1.169-.351,2.346-.671,3.5-1.05.1-1.934.261-3.864.366-5.8-1.892.013-3.784-.039-5.674-.006C35.7,42.623,35.767,38.136,35.714,33.649Z" transform="translate(-35.707 -33.649)" fill="#fff"/>
      </g>
    </g>
  </g>
</svg>
