<svg id="Education_icon" xmlns="http://www.w3.org/2000/svg" xmlns:xlink="http://www.w3.org/1999/xlink" width="30" height="20" viewBox="0 0 30 20">
  <defs>
    <clipPath id="clip-path">
      <rect id="사각형_150" data-name="사각형 150" width="30" height="20" fill="#fff"/>
    </clipPath>
  </defs>
  <g id="그룹_362" data-name="그룹 362" clip-path="url(#clip-path)">
    <path id="패스_662" data-name="패스 662" d="M29.177,16.187l.038.013a.561.561,0,0,0,.653-.177.623.623,0,0,0,.045-.7l-1.622-2.711c.724-.094,1.17-.13,1.176-.131a.577.577,0,0,0,.474-.336.623.623,0,0,0-.039-.6L22.692.269A.567.567,0,0,0,22.186,0c-.655.03-5.5.333-7.186,2.611C13.314.335,8.469.032,7.814,0a.565.565,0,0,0-.506.267L.1,11.547a.623.623,0,0,0-.038.6.577.577,0,0,0,.474.336c.006,0,.452.037,1.176.131L.088,15.322a.623.623,0,0,0,.045.7.561.561,0,0,0,.653.177l.038-.013L.093,17.364a.62.62,0,0,0,.051.723.56.56,0,0,0,.682.147c3.4-1.687,10.344.277,13.942,1.714a.543.543,0,0,0,.467,0c3.586-1.434,10.541-3.4,13.941-1.714a.561.561,0,0,0,.682-.147.621.621,0,0,0,.051-.723ZM2.053,14.537l-.01,0-.008,0-.143.036L2.96,12.793l.148.023.14.024c.178.029.361.061.55.094L4.15,13l.113.022.255.05.134.027.247.051.142.03.258.056.133.029.319.073.079.018q.2.047.4.1l.1.024.313.08.137.037.277.075.15.042.276.079.143.042.3.092.117.036q.209.067.417.136l.019.007c.131.044.261.089.391.136l.123.045.284.106.142.055c.089.035.177.069.265.106l.141.058.269.115.125.055q.166.074.329.152l.054.025c.127.06.252.123.375.186l.089.047c.091.048.182.1.271.147l.12.068c.078.045.154.089.23.135l.123.076c.074.046.146.093.218.14l.114.076c.078.053.153.107.227.162l.085.062c.1.076.2.153.295.233l.04.035c.08.068.158.136.233.206.03.028.058.056.086.083.057.055.114.111.168.168l.089.1c.05.055.1.111.145.167.028.033.056.067.082.1.047.059.091.12.134.18.022.032.046.063.067.095.053.079.1.159.149.24l.026.044,0,0a15.358,15.358,0,0,0-9.179-3.5,11.608,11.608,0,0,0-2.743.329m13.973,3.168c.009-.016.019-.032.029-.048q.069-.12.146-.236c.022-.032.046-.064.068-.1.043-.06.086-.12.132-.178.027-.035.055-.069.084-.1.046-.056.094-.11.143-.165.03-.033.06-.067.091-.1.053-.056.109-.11.165-.165l.089-.087c.073-.068.149-.135.227-.2l.046-.04c.094-.078.192-.155.292-.231l.1-.069c.071-.052.142-.1.216-.153.04-.028.082-.055.123-.083.068-.045.137-.089.207-.133l.133-.082c.072-.043.144-.086.218-.128l.131-.075c.083-.047.168-.092.254-.137l.106-.057c.121-.063.244-.123.368-.183l.083-.039c.1-.047.2-.093.3-.138l.139-.061c.084-.037.168-.073.254-.108l.154-.063.25-.1.155-.06.269-.1.137-.05q.184-.066.369-.128l.04-.014q.205-.069.412-.134l.132-.041.283-.087.156-.046.263-.076.157-.044.268-.073.146-.039.3-.078.1-.026q.2-.051.4-.1l.093-.022.3-.07.141-.031.25-.054.147-.031.244-.051.134-.027.26-.051L25.846,13l.354-.066.55-.094.143-.024.147-.023,1.067,1.784-.145-.037-.008,0h-.005c-5.247-1.275-9.731,1.449-11.925,3.173l0,0M8.085,1.223c2.032.152,6.338.932,6.338,3.139a.577.577,0,1,0,1.154,0c0-2.207,4.306-2.987,6.338-3.139l6.5,10.16c-.323.04-.715.092-1.163.161-.377.054-.8.125-1.245.2l-.458.086-.144.028-.32.064-.171.035-.306.065-.167.036-.349.079-.121.028c-.155.037-.311.073-.466.112l-.115.029c-.117.029-.234.059-.351.09l-.169.045-.3.083-.173.049-.313.091-.152.046c-.143.043-.285.087-.427.133l-.033.01q-.226.073-.448.15l-.146.052-.3.108-.166.063-.284.109-.158.063q-.157.063-.312.13l-.117.049c-.14.06-.278.122-.414.185l-.1.048q-.155.073-.306.148l-.143.073q-.129.066-.257.134l-.144.078c-.086.047-.171.1-.255.145-.042.024-.084.048-.125.073q-.169.1-.331.206l-.032.02q-.176.115-.344.234L16.974,15c-.077.056-.152.112-.226.169-.04.03-.078.062-.117.093q-.1.083-.2.168c-.036.032-.073.063-.109.094-.073.064-.143.13-.212.2l-.077.073q-.138.136-.266.278c-.019.021-.036.043-.055.064-.044.05-.088.1-.13.151V8.121a.577.577,0,1,0-1.154,0V16.3c-.045-.055-.093-.109-.14-.163l-.05-.058q-.129-.143-.268-.28c-.023-.023-.047-.044-.07-.067q-.107-.1-.219-.2l-.1-.09q-.1-.088-.208-.173l-.112-.089q-.114-.089-.233-.175l-.1-.073c-.113-.08-.229-.159-.347-.237l-.014-.008q-.171-.111-.35-.217l-.119-.069c-.086-.05-.174-.1-.262-.149l-.139-.076q-.13-.07-.264-.138l-.136-.069c-.1-.052-.211-.1-.318-.154l-.088-.042q-.206-.1-.418-.187l-.108-.045c-.106-.045-.213-.09-.321-.133l-.153-.061-.292-.113-.158-.059-.309-.111-.141-.049c-.149-.052-.3-.1-.45-.151l-.028-.009q-.215-.069-.432-.135l-.152-.046-.313-.091-.174-.049-.3-.083L6.963,12.4c-.116-.031-.232-.06-.349-.09l-.119-.03-.466-.112-.119-.027-.35-.079-.169-.036-.3-.065-.172-.036L4.6,11.863l-.151-.03-.456-.085c-.448-.079-.866-.149-1.239-.2h0c-.447-.068-.84-.121-1.163-.161ZM1.939,16.6l.583-.94a12.466,12.466,0,0,1,9.432,2.05c-2.842-.853-6.941-1.761-10.015-1.11m16.11,1.109a12.464,12.464,0,0,1,9.429-2.049l.584.94c-3.073-.652-7.169.256-10.013,1.109" transform="translate(0 -0.001)" fill="#fff"/>
  </g>
</svg>
