<svg id="email_icon" xmlns="http://www.w3.org/2000/svg" xmlns:xlink="http://www.w3.org/1999/xlink" width="60" height="39" viewBox="0 0 60 39">
  <defs>
    <clipPath id="clip-path">
      <rect id="사각형_57" data-name="사각형 57" width="60" height="39" fill="none"/>
    </clipPath>
  </defs>
  <g id="그룹_35" data-name="그룹 35" clip-path="url(#clip-path)">
    <path id="패스_121" data-name="패스 121" d="M58.238,1.329A5.232,5.232,0,0,0,54.75,0H5.244A5.17,5.17,0,0,0,1.788,1.3l-.016.015-.02.017c-.007.006-.011.013-.018.019A5.168,5.168,0,0,0,0,5.222V33.778A5.239,5.239,0,0,0,5.244,39H54.75A5.242,5.242,0,0,0,60,33.778V5.222a5.172,5.172,0,0,0-1.762-3.893m-7.127,3.1L30.287,19.977a.483.483,0,0,1-.582,0L8.888,4.426ZM54.75,34.574H5.244a.8.8,0,0,1-.8-.8V6.639l22.6,16.88a4.975,4.975,0,0,0,5.914,0l22.6-16.878v27.14a.8.8,0,0,1-.806.8" transform="translate(0 0)" fill="#fff"/>
  </g>
</svg>
