<svg id="Etc_icon" xmlns="http://www.w3.org/2000/svg" xmlns:xlink="http://www.w3.org/1999/xlink" width="66" height="66" viewBox="0 0 66 66">
  <defs>
    <clipPath id="clip-path">
      <rect id="사각형_26" data-name="사각형 26" width="66" height="66" fill="none"/>
    </clipPath>
  </defs>
  <g id="그룹_6" data-name="그룹 6" clip-path="url(#clip-path)">
    <path id="패스_7" data-name="패스 7" d="M44.391,55.278A10.888,10.888,0,1,1,55.279,44.39,10.9,10.9,0,0,1,44.391,55.278m0-16.5A5.609,5.609,0,1,0,50,44.39a5.615,5.615,0,0,0-5.609-5.609" transform="translate(-11.391 -11.156)" fill="#fff"/>
    <path id="패스_8" data-name="패스 8" d="M37.184,66H28.816a2.639,2.639,0,0,1-2.577-2.068L25.2,59.258a27.071,27.071,0,0,1-5.254-2.183L15.9,59.653a2.639,2.639,0,0,1-3.286-.36L6.7,53.375a2.641,2.641,0,0,1-.358-3.284L8.919,46.05A27.235,27.235,0,0,1,6.741,40.8L2.067,39.76A2.639,2.639,0,0,1,0,37.183V28.816A2.639,2.639,0,0,1,2.067,26.24L6.741,25.2a27.246,27.246,0,0,1,2.178-5.252L6.345,15.909a2.639,2.639,0,0,1,.36-3.285l5.913-5.912a2.638,2.638,0,0,1,3.283-.36l4.045,2.573A27.133,27.133,0,0,1,25.2,6.741L26.24,2.067A2.639,2.639,0,0,1,28.816,0h8.367A2.64,2.64,0,0,1,39.76,2.067L40.8,6.741a27.108,27.108,0,0,1,5.255,2.183l4.039-2.572a2.638,2.638,0,0,1,3.284.36l5.912,5.912a2.64,2.64,0,0,1,.36,3.285l-2.573,4.038A27.141,27.141,0,0,1,59.258,25.2l4.674,1.038A2.639,2.639,0,0,1,66,28.816v8.367a2.639,2.639,0,0,1-2.068,2.577L59.258,40.8a27.089,27.089,0,0,1-2.183,5.256l2.573,4.038a2.641,2.641,0,0,1-.359,3.284l-5.912,5.919a2.64,2.64,0,0,1-3.285.361L46.05,57.08A27.291,27.291,0,0,1,40.8,59.259L39.76,63.932A2.641,2.641,0,0,1,37.184,66m-6.25-5.279h4.132l.927-4.174a2.64,2.64,0,0,1,1.983-2,22.038,22.038,0,0,0,6.737-2.794,2.64,2.64,0,0,1,2.818.012l3.61,2.3,2.919-2.922-2.3-3.612a2.639,2.639,0,0,1-.009-2.822,21.886,21.886,0,0,0,2.8-6.733,2.639,2.639,0,0,1,2-1.982l4.174-.927V30.934l-4.174-.927a2.64,2.64,0,0,1-2-1.982,21.886,21.886,0,0,0-2.8-6.733,2.639,2.639,0,0,1,.009-2.822l2.3-3.611-2.917-2.917-3.612,2.3a2.638,2.638,0,0,1-2.822.009,21.908,21.908,0,0,0-6.732-2.8,2.64,2.64,0,0,1-1.983-2l-.927-4.174H30.934l-.927,4.174a2.64,2.64,0,0,1-1.982,2,21.9,21.9,0,0,0-6.733,2.8,2.638,2.638,0,0,1-2.821-.008l-3.617-2.3-2.919,2.918,2.3,3.611a2.64,2.64,0,0,1,.012,2.818,22.037,22.037,0,0,0-2.794,6.737,2.638,2.638,0,0,1-2,1.982l-4.175.927v4.132l4.175.927a2.639,2.639,0,0,1,2,1.982,22.019,22.019,0,0,0,2.794,6.737,2.64,2.64,0,0,1-.012,2.818l-2.3,3.612,2.919,2.921,3.616-2.3a2.638,2.638,0,0,1,2.823-.009,21.909,21.909,0,0,0,6.733,2.8,2.64,2.64,0,0,1,1.982,2ZM63.361,37.183h0ZM33,43.887A10.888,10.888,0,1,1,43.888,33,10.9,10.9,0,0,1,33,43.887m0-16.5A5.609,5.609,0,1,0,38.609,33,5.615,5.615,0,0,0,33,27.391" transform="translate(0 0.235)" fill="#fff"/>
    <path id="패스_9" data-name="패스 9" d="M44.391,55.278A10.888,10.888,0,1,1,55.279,44.39,10.9,10.9,0,0,1,44.391,55.278m0-16.5A5.609,5.609,0,1,0,50,44.39a5.615,5.615,0,0,0-5.609-5.609" transform="translate(-11.391 -11.156)" fill="#fff"/>
  </g>
</svg>
