<svg xmlns="http://www.w3.org/2000/svg" width="60" height="58.521" viewBox="0 0 60 58.521">
  <path id="github-icon" d="M30,0a30,30,0,0,0-9.483,58.467c1.5.278,1.983-.653,1.983-1.443V51.44c-8.345,1.815-10.082-3.54-10.082-3.54-1.365-3.467-3.333-4.39-3.333-4.39-2.722-1.863.208-1.823.208-1.823a6.3,6.3,0,0,1,4.6,3.092c2.675,4.585,7.018,3.26,8.73,2.492a6.365,6.365,0,0,1,1.905-4.01c-6.663-.763-13.667-3.335-13.667-14.827a11.611,11.611,0,0,1,3.09-8.052,10.791,10.791,0,0,1,.293-7.94s2.52-.8,8.252,3.075a28.435,28.435,0,0,1,15.022,0c5.728-3.88,8.243-3.075,8.243-3.075a10.78,10.78,0,0,1,.3,7.94,11.58,11.58,0,0,1,3.088,8.052c0,11.523-7.018,14.06-13.7,14.8,1.075.93,2.058,2.755,2.058,5.555v8.232c0,.8.48,1.735,2,1.44A30.006,30.006,0,0,0,30,0Z" fill="#fff"/>
</svg>
