<svg xmlns="http://www.w3.org/2000/svg" xmlns:xlink="http://www.w3.org/1999/xlink" width="50" height="50" viewBox="0 0 50 50">
  <defs>
    <clipPath id="clip-path">
      <rect id="사각형_10" data-name="사각형 10" width="50" height="50" fill="#fb44fb"/>
    </clipPath>
  </defs>
  <g id="Koa_logo" clip-path="url(#clip-path)">
    <g id="koa_logo-2" data-name="koa_logo" transform="translate(0 11.463)">
      <path id="패스_112" data-name="패스 112" d="M2.505,0V17.822l7.873-8.875h.358L4.9,15.532,12.6,26.841H10.092L3.471,17.106l-.966,1.109v8.625H0V0ZM14.942,18.04C14.942,12.234,18.689,9,23.566,9c4.488,0,8.341,2.295,8.341,8.622,0,5.806-3.746,9.039-8.623,9.039C18.795,26.662,14.942,24.367,14.942,18.04Zm2.324,0c0,6.117,2.685,8.389,6.015,8.389,3.509,0,6.3-3.216,6.3-8.808,0-6.117-2.685-8.389-6.015-8.389C20.059,9.233,17.266,12.449,17.266,18.041Zm31.659,8.517c-4.231,0-4.023-2.468-4.023-2.468V23.6A5.613,5.613,0,0,1,39.457,26.7c-4.058,0-4.752-2.573-4.96-3.963-.347-2.329.486-4.068,6.659-4.485a27.185,27.185,0,0,1,3.746-.035V12.443s.382-3.129-3.642-3.129A14.542,14.542,0,0,0,35.572,10.7l-.139-.243a13.165,13.165,0,0,1,6.278-1.425c5.029,0,5.619,2.225,5.619,3.407V24.09c0,2.26,1.6,2.19,1.6,2.19H50v.278Zm-8.861-.093c2.6,0,4.721-2.367,4.824-3.78V18.41a18.439,18.439,0,0,0-3.729.035c-3.627.424-4.345,1.7-4.14,4.275C37.155,24.451,37.668,26.465,40.063,26.465Z" fill="#fff"/>
    </g>
  </g>
</svg>
