<svg xmlns="http://www.w3.org/2000/svg" xmlns:xlink="http://www.w3.org/1999/xlink" width="60" height="45" viewBox="0 0 60 45">
  <defs>
    <clipPath id="clip-path">
      <rect id="사각형_151" data-name="사각형 151" width="60" height="45" fill="#fff"/>
    </clipPath>
  </defs>
  <g id="main_logo" transform="translate(0 0)">
    <g id="그룹_363" data-name="그룹 363" transform="translate(0 0)" clip-path="url(#clip-path)">
      <path id="패스_664" data-name="패스 664" d="M34.615,13.253A11.282,11.282,0,0,0,23.657,0H0L2.32,5.637H23.657a5.653,5.653,0,0,1,3.936,9.623,5.526,5.526,0,0,1-3.936,1.65H6.96l2.32,5.637,4.635,11.274h6.96l-4.64-11.274h7.423a10.8,10.8,0,0,0,3.388-.537,16.877,16.877,0,0,1,7.57-8.757" transform="translate(0 0)" fill="#fff"/>
      <path id="패스_665" data-name="패스 665" d="M74.844,30.616H89.908l2.4-5.826H74.938a16.455,16.455,0,0,0-8.015,2.074,11.3,11.3,0,0,1-3.086,5.993,11.114,11.114,0,0,1-4.484,2.764A17.1,17.1,0,0,0,63.129,53.66a16.562,16.562,0,0,0,11.809,4.951h3.455l2.32-5.637H74.844A10.954,10.954,0,0,1,67.039,49.7a11.21,11.21,0,0,1,7.806-19.084" transform="translate(-32.308 -13.611)" fill="#fff"/>
    </g>
  </g>
</svg>
