<svg xmlns="http://www.w3.org/2000/svg" xmlns:xlink="http://www.w3.org/1999/xlink" width="50" height="50" viewBox="0 0 50 50">
  <defs>
    <clipPath id="clip-path">
      <rect id="사각형_11" data-name="사각형 11" width="50" height="50" transform="translate(0 -0.383)" fill="#fb44fb"/>
    </clipPath>
  </defs>
  <g id="MySQL_logo" transform="translate(0 0.383)" clip-path="url(#clip-path)">
    <g id="mysql_logo-2" data-name="mysql_logo" transform="translate(0 7.338)">
      <path id="패스_89" data-name="패스 89" d="M-9.656,3.442h50V38.1h-50Z" transform="translate(9.656 -3.442)" fill="none"/>
      <path id="패스_90" data-name="패스 90" d="M12.52,51.333H11.166q-.072-3.427-.4-6.446h-.012L8.7,51.333H7.667L5.619,44.887H5.607q-.228,2.9-.287,6.446H4.086q.119-4.313.6-8.088H6.362l1.953,5.943h.012l1.965-5.943H11.9q.527,4.421.623,8.088m5.87-5.967a18.217,18.217,0,0,1-2.181,6.52A2.9,2.9,0,0,1,13.9,53.453a2.273,2.273,0,0,1-.827-.2v-.721a3.981,3.981,0,0,0,.563.036,1.361,1.361,0,0,0,.947-.324,1.181,1.181,0,0,0,.431-.886,5.9,5.9,0,0,0-.335-1.378l-1.485-4.613h1.33l1.066,3.45a4.656,4.656,0,0,1,.3,1.642,22.537,22.537,0,0,0,1.222-5.092H18.39Z" transform="translate(2.785 -23.344)" fill="#5d87a1"/>
      <path id="패스_91" data-name="패스 91" d="M51.564,51.213H47.719V43.125h1.293v7.092h2.552Zm-4.852.2-1.487-.734a2.763,2.763,0,0,0,.371-.361,4.965,4.965,0,0,0,.947-3.294q0-4.013-3.151-4.014a2.984,2.984,0,0,0-2.408,1.019,4.95,4.95,0,0,0-.947,3.283,4.794,4.794,0,0,0,.838,3.126,2.873,2.873,0,0,0,2.313.9,3.727,3.727,0,0,0,1.059-.142l1.936,1.127ZM41.9,49.594a4.985,4.985,0,0,1-.491-2.539Q41.405,44,43.262,44a1.558,1.558,0,0,1,1.425.73,4.935,4.935,0,0,1,.491,2.516q0,3.08-1.857,3.08a1.555,1.555,0,0,1-1.426-.731m-2.421-.623a2.146,2.146,0,0,1-.754,1.689,2.971,2.971,0,0,1-2.024.659,4.053,4.053,0,0,1-2.3-.755l.348-.694a3.935,3.935,0,0,0,1.736.479,1.824,1.824,0,0,0,1.144-.322,1.1,1.1,0,0,0,.44-.9c0-.481-.335-.891-.95-1.235-.567-.311-1.7-.962-1.7-.962a1.936,1.936,0,0,1-.922-1.721,2.009,2.009,0,0,1,.688-1.587,2.6,2.6,0,0,1,1.779-.606,3.69,3.69,0,0,1,2.048.6l-.312.695a3.96,3.96,0,0,0-1.557-.335,1.387,1.387,0,0,0-.957.3,1,1,0,0,0-.363.767c0,.478.342.894.974,1.245.574.312,1.736.974,1.736.974a1.911,1.911,0,0,1,.945,1.709" transform="translate(-12.37 -23.224)" fill="#f8981d"/>
      <path id="패스_92" data-name="패스 92" d="M58.746,26.92a4.516,4.516,0,0,0-1.9.274c-.147.059-.38.059-.4.244.079.078.088.205.157.313a2.27,2.27,0,0,0,.508.6c.2.157.41.312.626.449.38.235.811.372,1.181.606.216.136.43.313.646.459.106.078.174.205.312.254v-.03c-.069-.088-.089-.215-.156-.313l-.293-.283a4.651,4.651,0,0,0-1.016-.986c-.313-.216-1-.508-1.124-.869l-.02-.02a3.893,3.893,0,0,0,.674-.158c.332-.088.636-.068.977-.155.157-.039.313-.088.47-.137v-.088c-.177-.176-.3-.41-.489-.576a13.011,13.011,0,0,0-1.612-1.2c-.3-.2-.694-.322-1.017-.489-.116-.059-.313-.088-.381-.186a3.981,3.981,0,0,1-.4-.753c-.282-.537-.557-1.133-.8-1.7a10.569,10.569,0,0,0-.5-1.114A9.856,9.856,0,0,0,50.411,17.4a4.686,4.686,0,0,0-1.25-.4l-.733-.039a3.885,3.885,0,0,1-.45-.342c-.558-.352-1.993-1.114-2.4-.108-.264.636.391,1.261.616,1.584a4.491,4.491,0,0,1,.5.733c.069.166.088.342.157.518a11.7,11.7,0,0,0,.508,1.31,4.663,4.663,0,0,0,.361.6c.078.108.215.156.245.333a2.8,2.8,0,0,0-.225.733,4.306,4.306,0,0,0,.284,3.283c.156.244.528.782,1.025.576.44-.176.343-.733.47-1.221.029-.118.01-.2.069-.273v.019c.136.273.274.537.4.811a5.572,5.572,0,0,0,1.271,1.308c.234.177.42.479.713.587v-.029h-.019a1.1,1.1,0,0,0-.224-.195,4.745,4.745,0,0,1-.508-.586,12.586,12.586,0,0,1-1.094-1.779c-.157-.3-.293-.635-.42-.938-.059-.117-.059-.293-.157-.352a3.655,3.655,0,0,0-.468.664,5.527,5.527,0,0,0-.274,1.477l-.038.019c-.311-.078-.42-.4-.538-.674a4.232,4.232,0,0,1-.088-2.609c.068-.2.362-.85.245-1.045-.059-.187-.255-.293-.362-.441a3.972,3.972,0,0,1-.352-.625c-.234-.547-.352-1.153-.6-1.7a5.264,5.264,0,0,0-.489-.753,4.841,4.841,0,0,1-.538-.762c-.049-.108-.117-.283-.039-.4a.156.156,0,0,1,.137-.127c.127-.107.488.029.615.088a4.951,4.951,0,0,1,.968.488c.137.1.284.284.459.333h.206c.312.068.664.019.958.107a6.29,6.29,0,0,1,1.407.674,8.67,8.67,0,0,1,3.048,3.342c.117.224.167.43.273.664.206.479.46.968.665,1.437A6.439,6.439,0,0,0,55.425,25c.146.205.734.313,1,.42a6.893,6.893,0,0,1,.674.273c.332.2.664.44.976.665.156.117.645.361.674.557m-9.967-8.492a1.522,1.522,0,0,0-.4.049v.02H48.4a3.188,3.188,0,0,0,.313.4c.079.157.147.312.224.468l.019-.019a.549.549,0,0,0,.206-.489,2.233,2.233,0,0,1-.118-.205c-.058-.1-.184-.146-.263-.225" transform="translate(-17.928 -9.727)" fill="#5d87a1"/>
      <path id="패스_93" data-name="패스 93" d="M71.918,58.427h.2v-.991h-.3l-.248.676-.269-.676h-.292v.991H71.2v-.754h.011l.282.754h.146l.281-.754Zm-1.631,0H70.5V57.6h.28v-.168h-.787V57.6h.292Z" transform="translate(-30.169 -30.439)" fill="#f8981d"/>
    </g>
  </g>
</svg>
