<svg xmlns="http://www.w3.org/2000/svg" xmlns:xlink="http://www.w3.org/1999/xlink" width="50" height="50" viewBox="0 0 50 50">
  <defs>
    <clipPath id="clip-path">
      <rect id="사각형_10" data-name="사각형 10" width="50" height="50" transform="translate(0 -0.383)" fill="#fb44fb"/>
    </clipPath>
  </defs>
  <g id="Node.js_logo" transform="translate(0 0.383)" clip-path="url(#clip-path)">
    <g id="node-js_logo" transform="translate(1.786 -0.334)">
      <path id="패스_94" data-name="패스 94" d="M36.022,7.676a4.378,4.378,0,0,0-4.189,0q-9.53,5.26-19.062,10.518a3.844,3.844,0,0,0-2.057,3.357V42.737a3.873,3.873,0,0,0,2.137,3.388c1.825.971,3.6,2.041,5.457,2.947a8,8,0,0,0,7,.188,5.285,5.285,0,0,0,2.545-4.8c.014-6.992,0-13.984.006-20.976a.553.553,0,0,0-.53-.635c-.812-.013-1.625-.008-2.437,0a.53.53,0,0,0-.583.534c-.011,6.947,0,13.9-.007,20.844a2.354,2.354,0,0,1-1.558,2.209c-2.139.75-8.245-3.215-8.245-3.215a.6.6,0,0,1-.344-.588q0-10.484,0-20.968a.646.646,0,0,1,.4-.651q9.5-5.229,18.995-10.468a.686.686,0,0,1,.746,0q9.5,5.23,19,10.464a.654.654,0,0,1,.4.654q0,10.483,0,20.967a.6.6,0,0,1-.34.6c-6.274,3.467-12.619,6.822-18.835,10.389-.271.156-.579.332-.882.16-1.635-.9-3.25-1.844-4.879-2.757a.537.537,0,0,0-.587-.034,22.037,22.037,0,0,1-2.257,1.029c-1.178.466-.99.657.073,1.276q2.858,1.618,5.72,3.232a4.253,4.253,0,0,0,4.235.115q9.532-5.253,19.063-10.51a3.882,3.882,0,0,0,2.138-3.387V21.551a3.835,3.835,0,0,0-1.989-3.315Q45.59,12.952,36.022,7.676Z" transform="translate(-10.714 -7.143)" fill="#8cc84b"/>
      <path id="패스_95" data-name="패스 95" d="M64.593,38.722c-2.494-1.334-5.461-1.405-8.233-1.231a9.081,9.081,0,0,0-5.567,2.186,5.344,5.344,0,0,0-1.111,5.656A4.9,4.9,0,0,0,52.8,47.988a22.809,22.809,0,0,0,5.3.976,25.046,25.046,0,0,1,4.846.826c.642.213,1.391.539,1.588,1.238a2.439,2.439,0,0,1-.69,2.365c-2.135,1.69-8.074,1.431-10.183.1a3.574,3.574,0,0,1-1.37-2.526.562.562,0,0,0-.58-.548c-.81-.01-1.62-.008-2.429,0a.537.537,0,0,0-.592.466c-.166,4.378,3.854,6.287,7.627,6.707a21.1,21.1,0,0,0,6.48-.269,8.054,8.054,0,0,0,4.293-2.261A5.741,5.741,0,0,0,68.1,49.485a4.746,4.746,0,0,0-3.148-2.736,26.213,26.213,0,0,0-5.7-1.132c-2.428-.231-5.314-.137-6-1.732a2.108,2.108,0,0,1,.727-2.387c2.032-1.378,6.166-1.195,8.27-.166A3.591,3.591,0,0,1,64,43.812a.614.614,0,0,0,.582.589c.8.016,1.609,0,2.413.005a.583.583,0,0,0,.633-.419A6.057,6.057,0,0,0,64.593,38.722Z" transform="translate(-29.697 -22.282)" fill="#8cc84b"/>
    </g>
  </g>
</svg>
