<?xml version="1.0" encoding="UTF-8"?>
<svg id="Layer_2" data-name="Layer 2" xmlns="http://www.w3.org/2000/svg" viewBox="0 0 27 34.49">
  <defs>
    <style>
      .cls-1 {
        fill: #fff;
        stroke-width: 0px;
      }
    </style>
  </defs>
  <g id="Layer_1-2" data-name="Layer 1">
    <g>
      <path class="cls-1" d="M14.21,7.78c-.09-.09-.2-.17-.33-.22-.24-.1-.52-.1-.76,0-.12.05-.23.12-.33.22L.29,20.28c-.39.39-.39,1.02,0,1.41s1.02.39,1.41,0l10.79-10.79v22.59c0,.55.45,1,1,1s1-.45,1-1V10.9l10.79,10.79c.2.2.45.29.71.29s.51-.1.71-.29c.39-.39.39-1.02,0-1.41L14.21,7.78Z"/>
      <path class="cls-1" d="M26,0H1C.45,0,0,.45,0,1s.45,1,1,1h25c.55,0,1-.45,1-1s-.45-1-1-1Z"/>
    </g>
  </g>
</svg>