<svg id="그룹_368" data-name="그룹 368" xmlns="http://www.w3.org/2000/svg" xmlns:xlink="http://www.w3.org/1999/xlink" width="20" height="35" viewBox="0 0 20 35">
  <defs>
    <clipPath id="clip-path">
      <rect id="사각형_199" data-name="사각형 199" width="20" height="35" fill="#fff"/>
    </clipPath>
  </defs>
  <g id="그룹_367" data-name="그룹 367" clip-path="url(#clip-path)">
    <path id="패스_675" data-name="패스 675" d="M10,35A10.221,10.221,0,0,1,0,24.593V15.131A10.221,10.221,0,0,1,10,4.724,10.221,10.221,0,0,1,20,15.131v9.462A10.221,10.221,0,0,1,10,35M10,6.616a8.363,8.363,0,0,0-8.182,8.515v9.462A8.363,8.363,0,0,0,10,33.108a8.363,8.363,0,0,0,8.182-8.515V15.131A8.363,8.363,0,0,0,10,6.616" fill="#fff"/>
    <path id="패스_676" data-name="패스 676" d="M10,12.481a1.733,1.733,0,0,0-1.7,1.767v1.766a1.7,1.7,0,1,0,3.4,0V14.248A1.733,1.733,0,0,0,10,12.481" fill="#fff"/>
    <path id="패스_677" data-name="패스 677" d="M11.535,3.444a.888.888,0,0,1-.633-.267L10,2.265l-.9.912a.885.885,0,0,1-1.285-.02A.972.972,0,0,1,7.832,1.82L9.367.268a.882.882,0,0,1,1.266,0L12.168,1.82a.972.972,0,0,1,.019,1.337.889.889,0,0,1-.652.287" fill="#fff"/>
  </g>
</svg>
