<svg id="Server_icon" xmlns="http://www.w3.org/2000/svg" xmlns:xlink="http://www.w3.org/1999/xlink" width="66" height="66" viewBox="0 0 66 66">
  <defs>
    <clipPath id="clip-path">
      <rect id="사각형_25" data-name="사각형 25" width="66" height="66" fill="none"/>
    </clipPath>
  </defs>
  <g id="그룹_5" data-name="그룹 5" clip-path="url(#clip-path)">
    <path id="패스_4" data-name="패스 4" d="M33,20.167c-12.257,0-33-2.124-33-10.083S20.743,0,33,0,66,2.124,66,10.083,45.257,20.167,33,20.167M4.943,10.083C6.193,12.02,16.233,15.278,33,15.278s26.805-3.258,28.057-5.194C59.805,8.147,49.765,4.889,33,4.889S6.193,8.147,4.943,10.083" transform="translate(0 0.235)" fill="#fff"/>
    <path id="패스_5" data-name="패스 5" d="M33,82.928c-12.257,0-33-2.123-33-10.083V49.928H4.889a.392.392,0,0,0-.022-.14C5.7,51.7,15.82,55.122,33,55.122s27.3-3.42,28.133-5.335a.413.413,0,0,0-.022.141H66V72.845c0,7.96-20.743,10.083-33,10.083M4.889,72.752C5.869,74.674,15.961,78.039,33,78.039s27.129-3.365,28.111-5.287v-17.1C54.222,58.978,41.548,60.011,33,60.011S11.777,58.978,4.889,55.654Z" transform="translate(0 -16.692)" fill="#fff"/>
    <path id="패스_6" data-name="패스 6" d="M33,48.2c-12.257,0-33-2.123-33-10.083V15.2H4.889a.392.392,0,0,0-.022-.14C5.7,16.979,15.82,20.4,33,20.4s27.3-3.42,28.133-5.335a.413.413,0,0,0-.022.141H66V38.122C66,46.081,45.257,48.2,33,48.2M4.889,38.029C5.869,39.951,15.961,43.316,33,43.316s27.129-3.365,28.111-5.287v-17.1C54.222,24.255,41.548,25.288,33,25.288S11.777,24.255,4.889,20.931Z" transform="translate(0 -4.887)" fill="#fff"/>
  </g>
</svg>
